<?xml version="1.0" encoding="UTF-8" standalone="no"?>
<!-- Generator: Adobe Illustrator 12.0.1, SVG Export Plug-In . SVG Version: 6.00 Build 51448)  -->

<svg
   xmlns:dc="http://purl.org/dc/elements/1.1/"
   xmlns:cc="http://creativecommons.org/ns#"
   xmlns:rdf="http://www.w3.org/1999/02/22-rdf-syntax-ns#"
   xmlns:svg="http://www.w3.org/2000/svg"
   xmlns="http://www.w3.org/2000/svg"
   xmlns:sodipodi="http://sodipodi.sourceforge.net/DTD/sodipodi-0.dtd"
   xmlns:inkscape="http://www.inkscape.org/namespaces/inkscape"
   version="1.1"
   id="Layer_1"
   width="100.001"
   height="100"
   viewBox="0 0 100.001 100"
   overflow="visible"
   enable-background="new 0 0 100.001 100"
   xml:space="preserve"
   sodipodi:docname="icon_smile"
   inkscape:export-filename="C:\Users\Admin\Documents\workspace\Cris\res\drawable-hdpi\icon_smile.png"
   inkscape:export-xdpi="96"
   inkscape:export-ydpi="96"><metadata
     id="metadata8566"><rdf:RDF><cc:Work
         rdf:about=""><dc:format>image/svg+xml</dc:format><dc:type
           rdf:resource="http://purl.org/dc/dcmitype/StillImage" /></cc:Work></rdf:RDF></metadata><defs
     id="defs8564" /><sodipodi:namedview
     pagecolor="#ffffff"
     bordercolor="#666666"
     borderopacity="1"
     objecttolerance="10"
     gridtolerance="10"
     guidetolerance="10"
     inkscape:pageopacity="0"
     inkscape:pageshadow="2"
     inkscape:window-width="1280"
     inkscape:window-height="748"
     id="namedview8562"
     showgrid="false"
     inkscape:zoom="4.7398076"
     inkscape:cx="53.477879"
     inkscape:cy="44.162264"
     inkscape:window-x="-8"
     inkscape:window-y="-8"
     inkscape:window-maximized="1"
     inkscape:current-layer="g8553" /><g
     id="g8559"><g
       id="g8553"><g
         id="g8518"><g
           id="g8510"><radialGradient
             id="XMLID_4_"
             cx="48.085"
             cy="54.7769"
             r="52.4911"
             gradientUnits="userSpaceOnUse"><stop
               offset="0"
               style="stop-color:#FFF254"
               id="stop8499" /><stop
               offset="1"
               style="stop-color:#F9BC21"
               id="stop8501" /></radialGradient><path
             fill="url(#XMLID_4_)"
             d="M6.964,50.91c0,23.354,19,42.354,42.354,42.354s42.354-19,42.354-42.354      c0-23.354-19-42.353-42.354-42.353S6.964,27.556,6.964,50.91z"
             id="path8504" /><g
             id="g8508"><path
               d="M49.317,7.768c-5.824,0-11.474,1.141-16.794,3.391c-5.137,2.173-9.751,5.283-13.713,9.245       c-3.961,3.961-7.072,8.575-9.245,13.712c-2.25,5.32-3.391,10.971-3.391,16.795c0,5.823,1.141,11.474,3.391,16.794       c2.173,5.137,5.284,9.751,9.245,13.713c3.962,3.961,8.576,7.071,13.713,9.245c5.32,2.25,10.97,3.391,16.794,3.391       c5.824,0,11.474-1.141,16.794-3.391c5.137-2.174,9.751-5.284,13.713-9.245c3.961-3.962,7.072-8.576,9.245-13.713       c2.25-5.32,3.391-10.971,3.391-16.794c0-5.824-1.141-11.475-3.391-16.795c-2.173-5.137-5.284-9.751-9.245-13.712       c-3.962-3.962-8.576-7.072-13.713-9.245C60.792,8.909,55.141,7.768,49.317,7.768L49.317,7.768z M7.753,50.911       c0-22.955,18.609-41.563,41.564-41.563s41.564,18.608,41.564,41.563l0,0l0,0c0,22.954-18.609,41.563-41.564,41.563       S7.753,73.865,7.753,50.911L7.753,50.911L7.753,50.911z"
               id="path8506"
               fill="#E2963B" /></g></g><path
           fill="none"
           stroke="#727272"
           stroke-width="0.5471"
           d="M27.102,70.043"
           id="path8512" /><path
           fill="none"
           stroke="#666666"
           stroke-width="1.6413"
           d="M59.927,28.738"
           id="path8514" /><path
           fill="none"
           stroke="#606060"
           stroke-width="3.2825"
           stroke-linecap="round"
           d="M22.395,63.14c0,0-2.695,13.15,25.39,13.15     s26.512-13.403,26.512-13.403"
           id="path8516" /></g><defs
         id="defs8523"><filter
           id="Adobe_OpacityMaskFilter"
           filterUnits="userSpaceOnUse"
           x="10.591"
           y="9.437"
           width="76.947"
           height="76.947"><feColorMatrix
             type="matrix"
             values="1 0 0 0 0  0 1 0 0 0  0 0 1 0 0  0 0 0 1 0"
             id="feColorMatrix8520" /></filter></defs><mask
         maskUnits="userSpaceOnUse"
         x="10.591"
         y="9.437"
         width="76.947"
         height="76.947"
         id="XMLID_5_"><g
           filter="url(#Adobe_OpacityMaskFilter)"
           id="g8532"><radialGradient
             id="XMLID_6_"
             cx="48.0645"
             cy="26.3179"
             r="59.7214"
             gradientUnits="userSpaceOnUse"><stop
               offset="0"
               style="stop-color:#FFFFFF"
               id="stop8525" /><stop
               offset="1"
               style="stop-color:#000000"
               id="stop8527" /></radialGradient><circle
             opacity="0.7"
             fill="url(#XMLID_6_)"
             cx="48.849"
             cy="43.984"
             r="44.755"
             id="circle8530" /></g></mask><path
         style="opacity:0.56999996;fill:#ffffff"
         mask="url(#XMLID_5_)"
         d="M 87.537998,47.91 A 38.473999,38.473999 0 0 1 49.063999,86.383999 38.473999,38.473999 0 0 1 10.59,47.91 38.473999,38.473999 0 0 1 49.063999,9.4360008 38.473999,38.473999 0 0 1 87.537998,47.91 Z"
         id="circle8535" /><path
         fill="#8A5C29"
         stroke="#8A5C29"
         stroke-width="2.1883"
         stroke-linecap="round"
         stroke-linejoin="round"
         d="M55.287,35.855    c0,0,19.116-13.13,23.79,8.322l2.28-1.17c-4.673-21.452-23.789-8.322-23.789-8.322L55.287,35.855z"
         id="path8537" /><path
         fill="#3F3F3F"
         stroke="#3F3F3F"
         stroke-width="2.1883"
         stroke-linecap="round"
         stroke-linejoin="round"
         d="M55.287,34.761    c0,0,19.116-13.131,23.79,8.322l2.28-1.17c-4.673-21.453-23.789-8.322-23.789-8.322L55.287,34.761z"
         id="path8539" /><path
         fill="#8A5C29"
         stroke="#8A5C29"
         stroke-width="2.1883"
         stroke-linecap="round"
         stroke-linejoin="round"
         d="M42.249,35.507    c0,0-19.914-11.885-23.211,9.821l-2.351-1.022c3.296-21.705,23.211-9.82,23.211-9.82L42.249,35.507z"
         id="path8541" /><path
         fill="#3F3F3F"
         stroke="#3F3F3F"
         stroke-width="2.1883"
         stroke-linecap="round"
         stroke-linejoin="round"
         d="M42.249,34.414    c0,0-19.914-11.885-23.211,9.82l-2.351-1.021c3.296-21.705,23.211-9.82,23.211-9.82L42.249,34.414z"
         id="path8543" /><path
         style="fill:#f97575;stroke:#f97575;stroke-width:2.18829989;stroke-linecap:round;stroke-linejoin:round"
         d="m 34.912,54.702999 a 10.72,2.7320001 0 0 1 -10.720001,2.732 10.72,2.7320001 0 0 1 -10.72,-2.732 10.72,2.7320001 0 0 1 10.72,-2.732 10.72,2.7320001 0 0 1 10.720001,2.732 z"
         id="ellipse8545" /><path
         style="fill:#f97575;stroke:#f97575;stroke-width:2.18829989;stroke-linecap:round;stroke-linejoin:round"
         d="m 84.207,54.702999 a 10.72,2.7320001 0 0 1 -10.72,2.732 10.72,2.7320001 0 0 1 -10.720001,-2.732 10.72,2.7320001 0 0 1 10.720001,-2.732 10.72,2.7320001 0 0 1 10.72,2.732 z"
         id="ellipse8547" /><path
         style="fill:#3f3f3f;stroke:#3f3f3f;stroke-width:2.18829989;stroke-linecap:round;stroke-linejoin:round"
         d="m 37.292001,45.028 a 4.336,4.336 0 0 1 -4.336,4.336 4.336,4.336 0 0 1 -4.336,-4.336 4.336,4.336 0 0 1 4.336,-4.336 4.336,4.336 0 0 1 4.336,4.336 z"
         id="circle8549" /><path
         style="fill:#3f3f3f;stroke:#3f3f3f;stroke-width:2.18829989;stroke-linecap:round;stroke-linejoin:round"
         d="m 69.813997,45.028 a 4.336,4.336 0 0 1 -4.336,4.336 4.336,4.336 0 0 1 -4.336,-4.336 4.336,4.336 0 0 1 4.336,-4.336 4.336,4.336 0 0 1 4.336,4.336 z"
         id="circle8551" /></g><ellipse
       fill="#E95C5C"
       stroke="#E95C5C"
       stroke-width="2.1883"
       stroke-linecap="round"
       stroke-linejoin="round"
       cx="24.023"
       cy="54.023"
       rx="9.557"
       ry="1.566"
       id="ellipse8555" /><ellipse
       fill="#E95C5C"
       stroke="#E95C5C"
       stroke-width="2.1883"
       stroke-linecap="round"
       stroke-linejoin="round"
       cx="73.487"
       cy="54.023"
       rx="9.557"
       ry="1.566"
       id="ellipse8557" /></g></svg>